<?xml version="1.0" encoding="UTF-8" standalone="no"?>
<svg xmlns:ffdec="https://www.free-decompiler.com/flash" xmlns:xlink="http://www.w3.org/1999/xlink" ffdec:objectType="shape" height="55.0px" width="68.35px" xmlns="http://www.w3.org/2000/svg">
  <g transform="matrix(1.0, 0.0, 0.0, 1.0, 1.0, 1.0)">
    <path d="M60.6 34.65 L45.75 5.2 6.6 15.05 19.9 44.85 60.6 34.65 M66.35 37.3 L17.25 49.9 0.0 12.2 48.15 0.0 66.35 37.3" fill="#808080" fill-rule="evenodd" stroke="none"/>
    <path d="M60.6 34.65 L19.9 44.85 6.6 15.05 45.75 5.2 60.6 34.65" fill="#003300" fill-rule="evenodd" stroke="none"/>
    <path d="M66.35 37.3 L65.4 40.7 16.0 53.0 17.25 49.9 66.35 37.3" fill="#494949" fill-rule="evenodd" stroke="none"/>
    <path d="M17.25 49.9 L16.0 53.0 0.0 17.7 0.0 12.2 17.25 49.9" fill="#d5d5d5" fill-rule="evenodd" stroke="none"/>
    <path d="M60.6 34.65 L19.9 44.85 6.6 15.05 45.75 5.2 60.6 34.65" fill="none" stroke="#000000" stroke-linecap="round" stroke-linejoin="round" stroke-width="1.5"/>
    <path d="M16.0 53.0 L65.4 40.7 66.35 37.3 48.15 0.0 0.0 12.2 0.0 17.7 16.0 53.0 Z" fill="none" stroke="#000000" stroke-linecap="round" stroke-linejoin="round" stroke-width="2.0"/>
  </g>
</svg>
